Coordinates
version=1
nRows=11
nColumns=46
inDegrees=yes

Units are S.I. units (second, meters, Newtons, ...)
Angles are in degrees.

endheader
time	pelvis_tilt	pelvis_list	pelvis_rotation	pelvis_tx	pelvis_ty	pelvis_tz	bb_angle	bb_tx	bb_ty	bb_tz	hip_flexion_r	hip_adduction_r	hip_rotation_r	knee_angle_r	knee_angle_r_beta	ankle_angle_r	subtalar_angle_r	mtp_angle_r	crank_angle_r	hip_flexion_l	hip_adduction_l	hip_rotation_l	knee_angle_l	knee_angle_l_beta	ankle_angle_l	subtalar_angle_l	mtp_angle_l	crank_angle_l	lumbar_extension	lumbar_bending	lumbar_rotation	arm_flex_r	arm_add_r	arm_rot_r	elbow_flex_r	pro_sup_r	wrist_flex_r	wrist_dev_r	arm_flex_l	arm_add_l	arm_rot_l	elbow_flex_l	pro_sup_l	wrist_flex_l	wrist_dev_l
      7.50500000	    -19.33133335	     -5.69694974	      6.20547132	      0.33419461	      1.14978377	     -0.24674941	      0.00000000	      0.50000000	      0.00000000	      0.25000000	     51.83846199	     -1.30715602	     -3.46149762	     88.71739805	      1.54841070	    -15.63934236	    -13.46803027	      0.00000000	      0.00000000	     53.13888594	     -1.66316391	     12.49555134	     51.69153611	      0.90218750	     -8.02354008	    -13.92626002	      0.00000000	      0.00000000	    -59.22092341	      4.88844810	     -3.57988379	     78.67463214	     -5.08622367	     55.50654235	     23.45553559	     46.45164536	      0.00000000	      0.00000000	     64.67583780	    -20.77861295	     34.30940642	     61.41527850	     47.99293159	      0.00000000	      0.00000000
      7.51000000	    -19.30194888	     -6.52941643	      5.94466197	      0.33389073	      1.14877828	     -0.24763910	      0.00000000	      0.50000000	      0.00000000	      0.25000000	     53.14167899	     -0.76628821	     -3.85862656	     90.77680293	      1.58435410	    -14.60090181	    -13.49936391	      0.00000000	      0.00000000	     51.92464798	     -2.73885144	     12.71504260	     49.61574371	      0.86595809	     -9.09958644	    -13.23932730	      0.00000000	      0.00000000	    -59.14231182	      5.50948929	     -2.85288301	     78.76697879	     -4.95381741	     55.52044722	     23.60154136	     46.46587761	      0.00000000	      0.00000000	     64.56985855	    -20.96443830	     34.26358370	     61.34303084	     47.97616983	      0.00000000	      0.00000000
      7.51500000	    -19.26524059	     -7.14482857	      5.68634346	      0.33365802	      1.14797096	     -0.24872515	      0.00000000	      0.50000000	      0.00000000	      0.25000000	     54.42967357	     -0.52294311	     -4.07063518	     92.85831345	      1.62068331	    -12.72069579	    -12.11637177	      0.00000000	      0.00000000	     50.61609560	     -3.67238522	     12.58242843	     47.45062415	      0.82816962	    -10.95452202	    -13.11784716	      0.00000000	      0.00000000	    -59.06495265	      5.93042132	     -2.32096988	     78.91694444	     -4.87028693	     55.84728058	     23.47554356	     46.49391165	      0.00000000	      0.00000000	     64.58166207	    -21.09519158	     34.54947543	     61.04794923	     47.96818594	      0.00000000	      0.00000000
      7.52000000	    -19.29900672	     -7.83298025	      5.42041578	      0.33329404	      1.14713074	     -0.24988547	      0.00000000	      0.50000000	      0.00000000	      0.25000000	     55.81863820	     -0.28021785	     -4.44543841	     94.79075140	      1.65441071	    -11.41087354	    -11.56199803	      0.00000000	      0.00000000	     49.39493998	     -4.63742664	     12.55596839	     45.34498259	      0.79141925	    -12.41746357	    -12.78671316	      0.00000000	      0.00000000	    -58.91373559	      6.46979348	     -1.79304946	     79.11430753	     -4.69196706	     56.19593562	     23.27114769	     46.51323617	      0.00000000	      0.00000000	     64.64858656	    -21.27521379	     34.93930160	     60.61548237	     47.94957611	      0.00000000	      0.00000000
      7.52500000	    -19.40717108	     -8.57618924	      5.13346237	      0.33296347	      1.14627027	     -0.25109839	      0.00000000	      0.50000000	      0.00000000	      0.25000000	     57.31083644	     -0.05855885	     -4.96220841	     96.61406875	      1.68623360	    -10.54578931	    -11.63653235	      0.00000000	      0.00000000	     48.25467474	     -5.67631374	     12.43668503	     43.29114486	      0.75557301	    -13.60585126	    -12.04770585	      0.00000000	      0.00000000	    -58.75290679	      7.12223064	     -1.12212359	     79.29213363	     -4.51624083	     56.24303576	     23.33775520	     46.52040408	      0.00000000	      0.00000000	     64.56306077	    -21.47492668	     35.00722342	     60.44077513	     47.92905557	      0.00000000	      0.00000000
      7.53000000	    -19.54759146	     -9.22133555	      4.76281187	      0.33265790	      1.14553900	     -0.25221822	      0.00000000	      0.50000000	      0.00000000	      0.25000000	     58.84181074	      0.04944198	     -5.46491791	     98.33586694	      1.71628465	     -9.60692118	    -11.48895025	      0.00000000	      0.00000000	     47.08799605	     -6.71544333	     12.12281969	     41.21174845	      0.71928070	    -15.05285579	    -11.44348520	      0.00000000	      0.00000000	    -58.55519423	      7.59629545	     -0.56850256	     79.43967677	     -4.32216478	     56.33383670	     23.32427136	     46.52402175	      0.00000000	      0.00000000	     64.47850908	    -21.66489971	     35.16378684	     60.18186231	     47.90501600	      0.00000000	      0.00000000
      7.53500000	    -19.60867120	     -9.38042756	      4.35076713	      0.33234070	      1.14505815	     -0.25346285	      0.00000000	      0.50000000	      0.00000000	      0.25000000	     60.32723673	     -0.17981215	     -5.44863522	    100.10534339	      1.74716784	     -8.39942653	    -10.44665619	      0.00000000	      0.00000000	     45.62772908	     -7.34634825	     11.40093542	     39.02177028	      0.68105837	    -17.01624919	    -12.04083713	      0.00000000	      0.00000000	    -58.37226731	      7.71462415	     -0.34754225	     79.60984513	     -3.91244914	     57.01596296	     22.48731319	     46.50713426	      0.00000000	      0.00000000	     64.91844908	    -21.85621685	     36.19317221	     59.09744771	     47.85265794	      0.00000000	      0.00000000
      7.54000000	    -19.75957332	     -9.96623412	      4.00179213	      0.33209512	      1.14445607	     -0.25478984	      0.00000000	      0.50000000	      0.00000000	      0.25000000	     61.85234299	     -0.23775696	     -6.00799528	    101.60698471	      1.77337643	     -7.77575317	    -10.61423860	      0.00000000	      0.00000000	     44.44939988	     -8.33222678	     10.86244540	     37.09340960	      0.64740213	    -18.06041751	    -11.31279982	      0.00000000	      0.00000000	    -58.18562475	      8.23091395	      0.19526401	     79.82367191	     -3.71221958	     57.14229044	     22.46008896	     46.51965330	      0.00000000	      0.00000000	     64.85482952	    -22.05460260	     36.35488765	     58.82223868	     47.83153677	      0.00000000	      0.00000000
      7.54500000	    -19.70947843	     -9.98479494	      3.46006539	      0.33208477	      1.14452308	     -0.25584731	      0.00000000	      0.50000000	      0.00000000	      0.25000000	     63.20291104	     -0.44111252	     -5.87111703	    103.08478036	      1.79916883	     -7.03742774	    -10.07682887	      0.00000000	      0.00000000	     42.79207376	     -9.04716753	      9.61163296	     35.03066670	      0.61140047	    -19.48362712	    -10.93999648	      0.00000000	      0.00000000	    -58.17300659	      8.15649966	      0.34575442	     79.99004612	     -3.35571551	     57.87306878	     21.77625956	     46.53816573	      0.00000000	      0.00000000	     65.32709180	    -22.23364702	     37.36794366	     57.65157573	     47.77233201	      0.00000000	      0.00000000
      7.55000000	    -19.78635798	    -10.22819381	      3.00799475	      0.33203213	      1.14447100	     -0.25703775	      0.00000000	      0.50000000	      0.00000000	      0.25000000	     64.65922751	     -0.61856931	     -6.04093188	    104.36514546	      1.82151541	     -6.67906202	     -9.97165601	      0.00000000	      0.00000000	     41.37362780	     -9.85470912	      8.59867736	     33.12108972	      0.57807207	    -20.59354985	    -10.00804223	      0.00000000	      0.00000000	    -58.06356901	      8.34559108	      0.63263738	     80.07262941	     -3.16139440	     58.17574711	     21.65149878	     46.56886724	      0.00000000	      0.00000000	     65.39713312	    -22.40011793	     37.73443106	     57.12099564	     47.73894443	      0.00000000	      0.00000000
      7.55500000	    -19.69061969	    -10.25852433	      2.46000427	      0.33218711	      1.14475773	     -0.25808070	      0.00000000	      0.50000000	      0.00000000	      0.25000000	     65.92224192	     -0.83427251	     -5.96370878	    105.58174452	      1.84274907	     -5.81527466	     -9.64263812	      0.00000000	      0.00000000	     39.67219561	    -10.57034686	      7.22879011	     31.27812878	      0.54590633	    -21.27679057	     -9.02590791	      0.00000000	      0.00000000	    -58.14105304	      8.27394183	      0.83540742	     80.27066453	     -2.95529918	     58.61150000	     21.44777591	     46.60598899	      0.00000000	      0.00000000	     65.72002884	    -22.55019384	     38.36671263	     56.22143617	     47.68200623	      0.00000000	      0.00000000
